<svg xmlns="http://www.w3.org/2000/svg" width="241" height="50" viewBox="0 0 241 50" fill="none">
<path fill-rule="evenodd" clip-rule="evenodd" d="M39.276 49.9999H18.494C18.0108 50.0029 17.5289 49.9508 17.0579 49.8447L21.0208 29.4059H36.7535L40.7164 49.8478L40.2519 49.9401L39.276 49.9999ZM17.2003 29.4059L12.9482 47.487C12.6358 47.1497 12.3627 46.7789 12.1339 46.3816L1.744 28.6245C1.09938 27.5232 0.76001 26.2738 0.76001 25.002C0.76001 23.7302 1.09938 22.4809 1.744 21.3795L12.1339 3.62251C12.7784 2.52121 13.7053 1.60666 14.8216 0.970781C15.9378 0.334903 17.204 9.26881e-05 18.4929 0H39.275C40.5639 9.26881e-05 41.8301 0.334903 42.9463 0.970781C44.0626 1.60666 44.9895 2.52121 45.6339 3.62251L56.026 21.3795C56.6706 22.4809 57.01 23.7302 57.01 25.002C57.01 26.2738 56.6706 27.5232 56.026 28.6245L45.635 46.3816C45.4067 46.7773 45.1343 47.1467 44.8229 47.4828L40.5708 29.4059H44.2584L43.2666 26.9591H39.9957L38.6605 21.2799H48.9389C47.22 20.4797 46.0039 19.497 45.719 18.1031C40.8355 18.1063 38.6085 16.4387 37.0501 13.1109C31.6524 14.0948 26.1177 14.0948 20.72 13.1109C19.1616 16.4387 16.9335 18.1063 12.051 18.1031C11.764 19.5064 10.5299 20.4954 8.83115 21.2799H19.1095L17.7743 26.9591H14.5024L13.5106 29.4059H17.2003ZM22.5962 21.2799H35.1738L36.2751 26.9591H21.4991L22.5962 21.2799Z" fill="#387888"/>
<path d="M84.0268 38.4999C81.9768 38.4999 80.0143 38.2124 78.1393 37.6374C76.2643 37.0374 74.7768 36.2749 73.6768 35.3499L75.3643 31.5624C76.4143 32.3874 77.7143 33.0749 79.2643 33.6249C80.8143 34.1749 82.4018 34.4499 84.0268 34.4499C85.4018 34.4499 86.5143 34.2999 87.3643 33.9999C88.2143 33.6999 88.8393 33.2999 89.2393 32.7999C89.6393 32.2749 89.8393 31.6874 89.8393 31.0374C89.8393 30.2374 89.5518 29.5999 88.9768 29.1249C88.4018 28.6249 87.6518 28.2374 86.7268 27.9624C85.8268 27.6624 84.8143 27.3874 83.6893 27.1374C82.5893 26.8874 81.4768 26.5999 80.3518 26.2749C79.2518 25.9249 78.2393 25.4874 77.3143 24.9624C76.4143 24.4124 75.6768 23.6874 75.1018 22.7874C74.5268 21.8874 74.2393 20.7374 74.2393 19.3374C74.2393 17.9124 74.6143 16.6124 75.3643 15.4374C76.1393 14.2374 77.3018 13.2874 78.8518 12.5874C80.4268 11.8624 82.4143 11.4999 84.8143 11.4999C86.3893 11.4999 87.9518 11.6999 89.5018 12.0999C91.0518 12.4999 92.4018 13.0749 93.5518 13.8249L92.0143 17.6124C90.8393 16.9124 89.6268 16.3999 88.3768 16.0749C87.1268 15.7249 85.9268 15.5499 84.7768 15.5499C83.4268 15.5499 82.3268 15.7124 81.4768 16.0374C80.6518 16.3624 80.0393 16.7874 79.6393 17.3124C79.2643 17.8374 79.0768 18.4374 79.0768 19.1124C79.0768 19.9124 79.3518 20.5624 79.9018 21.0624C80.4768 21.5374 81.2143 21.9124 82.1143 22.1874C83.0393 22.4624 84.0643 22.7374 85.1893 23.0124C86.3143 23.2624 87.4268 23.5499 88.5268 23.8749C89.6518 24.1999 90.6643 24.6249 91.5643 25.1499C92.4893 25.6749 93.2268 26.3874 93.7768 27.2874C94.3518 28.1874 94.6393 29.3249 94.6393 30.6999C94.6393 32.0999 94.2518 33.3999 93.4768 34.5999C92.7268 35.7749 91.5643 36.7249 89.9893 37.4499C88.4143 38.1499 86.4268 38.4999 84.0268 38.4999Z" fill="#1E232A"/>
<path d="M103.298 25.4124H114.173V29.0874H103.298V25.4124ZM103.936 34.3374H115.861V38.1249H99.2107V16.6749H115.448V20.4999H103.936V34.3374Z" fill="#1E232A"/>
<path d="M130.756 38.4999C128.506 38.4999 126.494 38.0249 124.719 37.0749C122.944 36.0999 121.544 34.7749 120.519 33.0999C119.494 31.4249 118.981 29.5249 118.981 27.3999C118.981 25.2749 119.494 23.3874 120.519 21.7374C121.544 20.0624 122.944 18.7499 124.719 17.7999C126.494 16.8249 128.506 16.3374 130.756 16.3374C132.706 16.3374 134.406 16.6374 135.856 17.2374C137.331 17.8124 138.581 18.7249 139.606 19.9749L136.531 22.8999C135.781 22.0249 134.931 21.3874 133.981 20.9874C133.031 20.5624 132.006 20.3499 130.906 20.3499C129.531 20.3499 128.294 20.6499 127.194 21.2499C126.119 21.8499 125.269 22.6874 124.644 23.7624C124.044 24.8124 123.744 26.0249 123.744 27.3999C123.744 28.7749 124.044 29.9999 124.644 31.0749C125.269 32.1499 126.119 32.9874 127.194 33.5874C128.294 34.1874 129.531 34.4874 130.906 34.4874C132.006 34.4874 133.031 34.2749 133.981 33.8499C134.931 33.4249 135.781 32.7749 136.531 31.8999L139.606 34.8624C138.581 36.0874 137.331 36.9999 135.856 37.5999C134.381 38.1999 132.681 38.4999 130.756 38.4999Z" fill="#1E232A"/>
<path d="M144.151 38.1249V11.8749H155.626C158.476 11.8749 160.976 12.4249 163.126 13.5249C165.276 14.6249 166.951 16.1499 168.151 18.0999C169.351 20.0499 169.951 22.3499 169.951 24.9999C169.951 27.6249 169.351 29.9249 168.151 31.8999C166.951 33.8499 165.276 35.3749 163.126 36.4749C160.976 37.5749 158.476 38.1249 155.626 38.1249H144.151ZM149.026 33.9999H155.401C157.376 33.9999 159.076 33.6249 160.501 32.8749C161.951 32.1249 163.063 31.0749 163.838 29.7249C164.638 28.3749 165.038 26.7999 165.038 24.9999C165.038 23.1749 164.638 21.5999 163.838 20.2749C163.063 18.9249 161.951 17.8749 160.501 17.1249C159.076 16.3749 157.376 15.9999 155.401 15.9999H149.026V33.9999Z" fill="#1E232A"/>
<path d="M184.957 38.4999C182.682 38.4999 180.645 38.0249 178.845 37.0749C177.07 36.0999 175.67 34.7749 174.645 33.0999C173.62 31.4249 173.107 29.5249 173.107 27.3999C173.107 25.2749 173.62 23.3874 174.645 21.7374C175.67 20.0624 177.07 18.7499 178.845 17.7999C180.645 16.8249 182.67 16.3374 184.92 16.3374C187.195 16.3374 189.22 16.8249 190.995 17.7999C192.795 18.7499 194.207 20.0624 195.232 21.7374C196.257 23.3874 196.77 25.2749 196.77 27.3999C196.77 29.5249 196.257 31.4249 195.232 33.0999C194.207 34.7749 192.795 36.0999 190.995 37.0749C189.22 38.0249 187.207 38.4999 184.957 38.4999ZM184.92 34.4874C186.295 34.4874 187.507 34.1874 188.557 33.5874C189.632 32.9624 190.47 32.1124 191.07 31.0374C191.67 29.9624 191.97 28.7499 191.97 27.3999C191.97 26.0249 191.657 24.8124 191.032 23.7624C190.432 22.6874 189.607 21.8499 188.557 21.2499C187.507 20.6499 186.307 20.3499 184.957 20.3499C183.607 20.3499 182.395 20.6499 181.32 21.2499C180.245 21.8499 179.395 22.6874 178.77 23.7624C178.17 24.8124 177.87 26.0249 177.87 27.3999C177.87 28.7499 178.17 29.9624 178.77 31.0374C179.395 32.1124 180.245 32.9624 181.32 33.5874C182.395 34.1874 183.595 34.4874 184.92 34.4874Z" fill="#1E232A"/>
<path d="M204.357 38.4999C202.857 38.4999 201.494 38.2249 200.269 37.6749C199.044 37.1249 198.069 36.3249 197.344 35.2749L200.232 32.3124C200.757 33.0124 201.357 33.5624 202.032 33.9624C202.707 34.3374 203.444 34.5249 204.244 34.5249C206.294 34.5249 207.319 33.2999 207.319 30.8499V20.4999H199.707V16.6749H212.044V30.4374C212.044 33.1624 211.382 35.1874 210.057 36.5124C208.732 37.8374 206.832 38.4999 204.357 38.4999Z" fill="#1E232A"/>
<path d="M228.427 38.4999C226.152 38.4999 224.114 38.0249 222.314 37.0749C220.539 36.0999 219.139 34.7749 218.114 33.0999C217.089 31.4249 216.577 29.5249 216.577 27.3999C216.577 25.2749 217.089 23.3874 218.114 21.7374C219.139 20.0624 220.539 18.7499 222.314 17.7999C224.114 16.8249 226.139 16.3374 228.389 16.3374C230.664 16.3374 232.689 16.8249 234.464 17.7999C236.264 18.7499 237.677 20.0624 238.702 21.7374C239.727 23.3874 240.239 25.2749 240.239 27.3999C240.239 29.5249 239.727 31.4249 238.702 33.0999C237.677 34.7749 236.264 36.0999 234.464 37.0749C232.689 38.0249 230.677 38.4999 228.427 38.4999ZM228.389 34.4874C229.764 34.4874 230.977 34.1874 232.027 33.5874C233.102 32.9624 233.939 32.1124 234.539 31.0374C235.139 29.9624 235.439 28.7499 235.439 27.3999C235.439 26.0249 235.127 24.8124 234.502 23.7624C233.902 22.6874 233.077 21.8499 232.027 21.2499C230.977 20.6499 229.777 20.3499 228.427 20.3499C227.077 20.3499 225.864 20.6499 224.789 21.2499C223.714 21.8499 222.864 22.6874 222.239 23.7624C221.639 24.8124 221.339 26.0249 221.339 27.3999C221.339 28.7499 221.639 29.9624 222.239 31.0374C222.864 32.1124 223.714 32.9624 224.789 33.5874C225.864 34.1874 227.064 34.4874 228.389 34.4874Z" fill="#1E232A"/>
</svg>